<svg width="1080" height="1081" viewBox="0 0 1080 1081" fill="none" xmlns="http://www.w3.org/2000/svg">
<rect width="1080" height="1080" transform="translate(0 0.5)" fill="white"/>
<path fill-rule="evenodd" clip-rule="evenodd" d="M255.753 463.796C215.581 474.271 195.481 528.045 210.859 583.904C221.694 623.259 247.25 653.15 275.454 663.713C315.127 772.537 418.914 847.252 540.67 847.252C662.651 847.252 766.596 772.261 806.105 663.111C833.689 652.046 858.506 622.536 869.141 583.907C884.519 528.048 864.419 474.274 824.247 463.799C817.76 462.107 811.145 461.648 804.55 462.303C769.961 371.319 690.287 304.831 593.066 287.071C600.59 273.212 611.963 256.727 627.188 246.745C630.25 244.738 629.249 234.425 625.594 234.216C573.535 231.231 512.878 241.644 482.65 288.157C387.937 307.423 310.629 373.149 276.738 462.443C269.716 461.591 262.662 461.994 255.753 463.796ZM623.187 365.328C689.547 365.328 743.35 418.758 743.35 484.661C743.35 524.619 723.49 559.918 693.106 581.575C701.63 602.554 706.374 625.634 706.374 649.883C706.374 746.204 631.88 805.921 540 805.921C448.119 805.921 373.625 746.204 373.625 649.883C373.592 626.47 378.098 603.273 386.894 581.575C356.51 559.918 336.649 524.636 336.649 484.661C336.649 418.758 390.452 365.328 456.812 365.328C487.806 365.296 517.612 377.245 540 398.678C562.388 377.245 592.194 365.296 623.187 365.328Z" fill="black"/>
<path d="M418.657 464.471C418.657 451.079 429.513 440.222 442.905 440.222C456.297 440.222 467.154 451.079 467.154 464.471L467.154 512.969C467.154 526.361 456.297 537.217 442.905 537.217C429.513 537.217 418.657 526.361 418.657 512.969L418.657 464.471Z" fill="black"/>
<path d="M612.847 464.471C612.847 451.079 623.703 440.222 637.096 440.222C650.488 440.222 661.344 451.079 661.344 464.471L661.344 512.968C661.344 526.361 650.488 537.217 637.096 537.217C623.703 537.217 612.847 526.36 612.847 512.968L612.847 464.471Z" fill="black"/>
<path d="M499.949 665.847C512.589 665.847 522.835 655.601 522.835 642.962C522.835 630.323 512.589 620.077 499.949 620.077C487.31 620.077 477.064 630.323 477.064 642.962C477.064 655.601 487.31 665.848 499.949 665.847Z" fill="black"/>
<path d="M580.052 665.847C592.691 665.847 602.937 655.601 602.937 642.962C602.937 630.323 592.691 620.077 580.052 620.077C567.413 620.077 557.167 630.323 557.167 642.962C557.167 655.601 567.413 665.847 580.052 665.847Z" fill="black"/>
<path d="M436.003 720.288C465.005 741.784 500.276 754.392 538.316 754.392C576.356 754.392 611.627 741.784 640.629 720.288" stroke="black" stroke-width="27.8574" stroke-linecap="round" stroke-linejoin="round"/>
</svg>
